<svg xmlns="http://www.w3.org/2000/svg" viewBox="0 0 48 48" width="48" height="48">
  <defs>
    <linearGradient id="g" x1="0" y1="0" x2="1" y2="1">
      <stop offset="0%" stop-color="#2563eb"/>
      <stop offset="100%" stop-color="#22d3ee"/>
    </linearGradient>
  </defs>
  <rect width="48" height="48" rx="12" fill="url(#g)"/>
  <path d="M24 10v28M24 10l-4 4M24 10l4 4M24 38l-4-4M24 38l4-4M12 17l24 14M12 17l1 5.5M12 17l5.5-1M36 31l-1-5.5M36 31l-5.5 1M36 17L12 31M36 17l-5.5 1M36 17l1 5.5M12 31l5.5 1M12 31l-1-5.5" stroke="#fff" stroke-width="2" stroke-linecap="round" stroke-linejoin="round" fill="none"/>
</svg>
